<?xml version="1.0" encoding="UTF-8" standalone="no"?>
<!DOCTYPE svg PUBLIC "-//W3C//DTD SVG 1.1//EN"
 "http://www.w3.org/Graphics/SVG/1.1/DTD/svg11.dtd">
<!-- Generated by graphviz version 2.38.0 (20140413.2041)
 -->
<!-- Title: AttackCommand Pages: 1 -->
<svg width="102pt" height="171pt"
 viewBox="0.00 0.00 102.00 171.00" xmlns="http://www.w3.org/2000/svg" xmlns:xlink="http://www.w3.org/1999/xlink">
<g id="graph0" class="graph" transform="scale(1 1) rotate(0) translate(4 167)">
<title>AttackCommand</title>
<polygon fill="white" stroke="none" points="-4,4 -4,-167 98,-167 98,4 -4,4"/>
<!-- Node1 -->
<g id="node1" class="node"><title>Node1</title>
<polygon fill="#bfbfbf" stroke="black" points="0,-0.5 0,-57.5 94,-57.5 94,-0.5 0,-0.5"/>
<text text-anchor="middle" x="47" y="-45.5" font-family="Helvetica,sans-Serif" font-size="10.00">AttackCommand</text>
<polyline fill="none" stroke="black" points="0,-38.5 94,-38.5 "/>
<text text-anchor="middle" x="47" y="-26.5" font-family="Helvetica,sans-Serif" font-size="10.00"> </text>
<polyline fill="none" stroke="black" points="0,-19.5 94,-19.5 "/>
<text text-anchor="start" x="8" y="-7.5" font-family="Helvetica,sans-Serif" font-size="10.00">+ execute()</text>
</g>
<!-- Node2 -->
<g id="node2" class="node"><title>Node2</title>
<g id="a_node2"><a xlink:href="../../d9/d71/classCommand.html" target="_top" xlink:title="Command Interface. ">
<polygon fill="white" stroke="black" points="3,-94.5 3,-162.5 91,-162.5 91,-94.5 3,-94.5"/>
<text text-anchor="middle" x="47" y="-150.5" font-family="Helvetica,sans-Serif" font-size="10.00">Command</text>
<polyline fill="none" stroke="black" points="3,-143.5 91,-143.5 "/>
<text text-anchor="middle" x="47" y="-131.5" font-family="Helvetica,sans-Serif" font-size="10.00"> </text>
<polyline fill="none" stroke="black" points="3,-124.5 91,-124.5 "/>
<text text-anchor="start" x="11" y="-112.5" font-family="Helvetica,sans-Serif" font-size="10.00">+ ~Command()</text>
<text text-anchor="start" x="11" y="-101.5" font-family="Helvetica,sans-Serif" font-size="10.00">+ execute()</text>
</a>
</g>
</g>
<!-- Node2&#45;&gt;Node1 -->
<g id="edge1" class="edge"><title>Node2&#45;&gt;Node1</title>
<path fill="none" stroke="midnightblue" d="M47,-84.4538C47,-75.4036 47,-66.0876 47,-57.7765"/>
<polygon fill="none" stroke="midnightblue" points="43.5001,-84.4909 47,-94.4909 50.5001,-84.491 43.5001,-84.4909"/>
</g>
</g>
</svg>
