<?xml version="1.0" encoding="UTF-8" standalone="no"?>
<!DOCTYPE svg PUBLIC "-//W3C//DTD SVG 1.1//EN"
 "http://www.w3.org/Graphics/SVG/1.1/DTD/svg11.dtd">
<!-- Generated by graphviz version 2.38.0 (20140413.2041)
 -->
<!-- Title: StartCommand Pages: 1 -->
<svg width="96pt" height="171pt"
 viewBox="0.00 0.00 96.00 171.00" xmlns="http://www.w3.org/2000/svg" xmlns:xlink="http://www.w3.org/1999/xlink">
<g id="graph0" class="graph" transform="scale(1 1) rotate(0) translate(4 167)">
<title>StartCommand</title>
<polygon fill="white" stroke="none" points="-4,4 -4,-167 92,-167 92,4 -4,4"/>
<!-- Node1 -->
<g id="node1" class="node"><title>Node1</title>
<polygon fill="#bfbfbf" stroke="black" points="0.5,-0.5 0.5,-57.5 87.5,-57.5 87.5,-0.5 0.5,-0.5"/>
<text text-anchor="middle" x="44" y="-45.5" font-family="Helvetica,sans-Serif" font-size="10.00">StartCommand</text>
<polyline fill="none" stroke="black" points="0.5,-38.5 87.5,-38.5 "/>
<text text-anchor="middle" x="44" y="-26.5" font-family="Helvetica,sans-Serif" font-size="10.00"> </text>
<polyline fill="none" stroke="black" points="0.5,-19.5 87.5,-19.5 "/>
<text text-anchor="start" x="8.5" y="-7.5" font-family="Helvetica,sans-Serif" font-size="10.00">+ execute()</text>
</g>
<!-- Node2 -->
<g id="node2" class="node"><title>Node2</title>
<g id="a_node2"><a xlink:href="../../d9/d71/classCommand.html" target="_top" xlink:title="Command Interface. ">
<polygon fill="white" stroke="black" points="-7.10543e-15,-94.5 -7.10543e-15,-162.5 88,-162.5 88,-94.5 -7.10543e-15,-94.5"/>
<text text-anchor="middle" x="44" y="-150.5" font-family="Helvetica,sans-Serif" font-size="10.00">Command</text>
<polyline fill="none" stroke="black" points="-7.10543e-15,-143.5 88,-143.5 "/>
<text text-anchor="middle" x="44" y="-131.5" font-family="Helvetica,sans-Serif" font-size="10.00"> </text>
<polyline fill="none" stroke="black" points="-7.10543e-15,-124.5 88,-124.5 "/>
<text text-anchor="start" x="8" y="-112.5" font-family="Helvetica,sans-Serif" font-size="10.00">+ ~Command()</text>
<text text-anchor="start" x="8" y="-101.5" font-family="Helvetica,sans-Serif" font-size="10.00">+ execute()</text>
</a>
</g>
</g>
<!-- Node2&#45;&gt;Node1 -->
<g id="edge1" class="edge"><title>Node2&#45;&gt;Node1</title>
<path fill="none" stroke="midnightblue" d="M44,-84.4538C44,-75.4036 44,-66.0876 44,-57.7765"/>
<polygon fill="none" stroke="midnightblue" points="40.5001,-84.4909 44,-94.4909 47.5001,-84.491 40.5001,-84.4909"/>
</g>
</g>
</svg>
