<?xml version="1.0" encoding="UTF-8" standalone="no"?>
<!DOCTYPE svg PUBLIC "-//W3C//DTD SVG 1.1//EN"
 "http://www.w3.org/Graphics/SVG/1.1/DTD/svg11.dtd">
<!-- Generated by graphviz version 2.38.0 (20140413.2041)
 -->
<!-- Title: Command Pages: 1 -->
<svg width="804pt" height="171pt"
 viewBox="0.00 0.00 803.50 171.00" xmlns="http://www.w3.org/2000/svg" xmlns:xlink="http://www.w3.org/1999/xlink">
<g id="graph0" class="graph" transform="scale(1 1) rotate(0) translate(4 167)">
<title>Command</title>
<polygon fill="white" stroke="none" points="-4,4 -4,-167 799.5,-167 799.5,4 -4,4"/>
<!-- Node1 -->
<g id="node1" class="node"><title>Node1</title>
<polygon fill="#bfbfbf" stroke="black" points="357.5,-94.5 357.5,-162.5 440.5,-162.5 440.5,-94.5 357.5,-94.5"/>
<text text-anchor="middle" x="399" y="-150.5" font-family="Helvetica,sans-Serif" font-size="10.00">Command</text>
<polyline fill="none" stroke="black" points="357.5,-143.5 440.5,-143.5 "/>
<text text-anchor="middle" x="399" y="-131.5" font-family="Helvetica,sans-Serif" font-size="10.00"> </text>
<polyline fill="none" stroke="black" points="357.5,-124.5 440.5,-124.5 "/>
<text text-anchor="start" x="365.5" y="-112.5" font-family="Helvetica,sans-Serif" font-size="10.00">+ ~Command()</text>
<text text-anchor="start" x="365.5" y="-101.5" font-family="Helvetica,sans-Serif" font-size="10.00">+ execute()</text>
</g>
<!-- Node2 -->
<g id="node2" class="node"><title>Node2</title>
<g id="a_node2"><a xlink:href="../../df/d0b/classAttackCommand.html" target="_top" xlink:title="AttackCommand. ">
<polygon fill="white" stroke="black" points="0,-0.5 0,-57.5 90,-57.5 90,-0.5 0,-0.5"/>
<text text-anchor="middle" x="45" y="-45.5" font-family="Helvetica,sans-Serif" font-size="10.00">AttackCommand</text>
<polyline fill="none" stroke="black" points="0,-38.5 90,-38.5 "/>
<text text-anchor="middle" x="45" y="-26.5" font-family="Helvetica,sans-Serif" font-size="10.00"> </text>
<polyline fill="none" stroke="black" points="0,-19.5 90,-19.5 "/>
<text text-anchor="start" x="8" y="-7.5" font-family="Helvetica,sans-Serif" font-size="10.00">+ execute()</text>
</a>
</g>
</g>
<!-- Node1&#45;&gt;Node2 -->
<g id="edge1" class="edge"><title>Node1&#45;&gt;Node2</title>
<path fill="none" stroke="midnightblue" d="M347.188,-119.565C286.466,-109.343 183.412,-89.1004 99,-58 96.1263,-56.9412 93.2108,-55.763 90.2997,-54.5061"/>
<polygon fill="none" stroke="midnightblue" points="346.852,-123.057 357.289,-121.238 347.996,-116.151 346.852,-123.057"/>
</g>
<!-- Node3 -->
<g id="node3" class="node"><title>Node3</title>
<g id="a_node3"><a xlink:href="../../df/d85/classDefendCommand.html" target="_top" xlink:title="DefendCommand. ">
<polygon fill="white" stroke="black" points="108.5,-0.5 108.5,-57.5 201.5,-57.5 201.5,-0.5 108.5,-0.5"/>
<text text-anchor="middle" x="155" y="-45.5" font-family="Helvetica,sans-Serif" font-size="10.00">DefendCommand</text>
<polyline fill="none" stroke="black" points="108.5,-38.5 201.5,-38.5 "/>
<text text-anchor="middle" x="155" y="-26.5" font-family="Helvetica,sans-Serif" font-size="10.00"> </text>
<polyline fill="none" stroke="black" points="108.5,-19.5 201.5,-19.5 "/>
<text text-anchor="start" x="116.5" y="-7.5" font-family="Helvetica,sans-Serif" font-size="10.00">+ execute()</text>
</a>
</g>
</g>
<!-- Node1&#45;&gt;Node3 -->
<g id="edge2" class="edge"><title>Node1&#45;&gt;Node3</title>
<path fill="none" stroke="midnightblue" d="M347.24,-110.324C308.886,-97.1513 255.589,-77.9029 210,-58 207.25,-56.7996 204.444,-55.5269 201.627,-54.2119"/>
<polygon fill="none" stroke="midnightblue" points="346.553,-113.788 357.148,-113.707 348.814,-107.164 346.553,-113.788"/>
</g>
<!-- Node4 -->
<g id="node4" class="node"><title>Node4</title>
<g id="a_node4"><a xlink:href="../../dc/dcb/classMoveDownCommand.html" target="_top" xlink:title="MoveDownCommand. ">
<polygon fill="white" stroke="black" points="219.5,-0.5 219.5,-57.5 330.5,-57.5 330.5,-0.5 219.5,-0.5"/>
<text text-anchor="middle" x="275" y="-45.5" font-family="Helvetica,sans-Serif" font-size="10.00">MoveDownCommand</text>
<polyline fill="none" stroke="black" points="219.5,-38.5 330.5,-38.5 "/>
<text text-anchor="middle" x="275" y="-26.5" font-family="Helvetica,sans-Serif" font-size="10.00"> </text>
<polyline fill="none" stroke="black" points="219.5,-19.5 330.5,-19.5 "/>
<text text-anchor="start" x="227.5" y="-7.5" font-family="Helvetica,sans-Serif" font-size="10.00">+ execute()</text>
</a>
</g>
</g>
<!-- Node1&#45;&gt;Node4 -->
<g id="edge3" class="edge"><title>Node1&#45;&gt;Node4</title>
<path fill="none" stroke="midnightblue" d="M349.313,-88.4313C336.185,-78.1094 322.291,-67.1842 310.112,-57.6086"/>
<polygon fill="none" stroke="midnightblue" points="347.34,-91.333 357.365,-94.7627 351.667,-85.8303 347.34,-91.333"/>
</g>
<!-- Node5 -->
<g id="node5" class="node"><title>Node5</title>
<g id="a_node5"><a xlink:href="../../db/d8c/classMoveLeftCommand.html" target="_top" xlink:title="MoveLeftCommand. ">
<polygon fill="white" stroke="black" points="348,-0.5 348,-57.5 450,-57.5 450,-0.5 348,-0.5"/>
<text text-anchor="middle" x="399" y="-45.5" font-family="Helvetica,sans-Serif" font-size="10.00">MoveLeftCommand</text>
<polyline fill="none" stroke="black" points="348,-38.5 450,-38.5 "/>
<text text-anchor="middle" x="399" y="-26.5" font-family="Helvetica,sans-Serif" font-size="10.00"> </text>
<polyline fill="none" stroke="black" points="348,-19.5 450,-19.5 "/>
<text text-anchor="start" x="356" y="-7.5" font-family="Helvetica,sans-Serif" font-size="10.00">+ execute()</text>
</a>
</g>
</g>
<!-- Node1&#45;&gt;Node5 -->
<g id="edge4" class="edge"><title>Node1&#45;&gt;Node5</title>
<path fill="none" stroke="midnightblue" d="M399,-84.4538C399,-75.4036 399,-66.0876 399,-57.7765"/>
<polygon fill="none" stroke="midnightblue" points="395.5,-84.4909 399,-94.4909 402.5,-84.491 395.5,-84.4909"/>
</g>
<!-- Node6 -->
<g id="node6" class="node"><title>Node6</title>
<g id="a_node6"><a xlink:href="../../df/d92/classMoveRightCommand.html" target="_top" xlink:title="MoveRightCommand. ">
<polygon fill="white" stroke="black" points="468.5,-0.5 468.5,-57.5 577.5,-57.5 577.5,-0.5 468.5,-0.5"/>
<text text-anchor="middle" x="523" y="-45.5" font-family="Helvetica,sans-Serif" font-size="10.00">MoveRightCommand</text>
<polyline fill="none" stroke="black" points="468.5,-38.5 577.5,-38.5 "/>
<text text-anchor="middle" x="523" y="-26.5" font-family="Helvetica,sans-Serif" font-size="10.00"> </text>
<polyline fill="none" stroke="black" points="468.5,-19.5 577.5,-19.5 "/>
<text text-anchor="start" x="476.5" y="-7.5" font-family="Helvetica,sans-Serif" font-size="10.00">+ execute()</text>
</a>
</g>
</g>
<!-- Node1&#45;&gt;Node6 -->
<g id="edge5" class="edge"><title>Node1&#45;&gt;Node6</title>
<path fill="none" stroke="midnightblue" d="M448.687,-88.4313C461.815,-78.1094 475.709,-67.1842 487.888,-57.6086"/>
<polygon fill="none" stroke="midnightblue" points="446.333,-85.8303 440.635,-94.7627 450.66,-91.333 446.333,-85.8303"/>
</g>
<!-- Node7 -->
<g id="node7" class="node"><title>Node7</title>
<g id="a_node7"><a xlink:href="../../db/d91/classMoveUpCommand.html" target="_top" xlink:title="MoveUpCommand. ">
<polygon fill="white" stroke="black" points="596,-0.5 596,-57.5 694,-57.5 694,-0.5 596,-0.5"/>
<text text-anchor="middle" x="645" y="-45.5" font-family="Helvetica,sans-Serif" font-size="10.00">MoveUpCommand</text>
<polyline fill="none" stroke="black" points="596,-38.5 694,-38.5 "/>
<text text-anchor="middle" x="645" y="-26.5" font-family="Helvetica,sans-Serif" font-size="10.00"> </text>
<polyline fill="none" stroke="black" points="596,-19.5 694,-19.5 "/>
<text text-anchor="start" x="604" y="-7.5" font-family="Helvetica,sans-Serif" font-size="10.00">+ execute()</text>
</a>
</g>
</g>
<!-- Node1&#45;&gt;Node7 -->
<g id="edge6" class="edge"><title>Node1&#45;&gt;Node7</title>
<path fill="none" stroke="midnightblue" d="M450.357,-110.008C488.443,-96.6768 541.434,-77.3689 587,-58 589.881,-56.7752 592.826,-55.4835 595.786,-54.1539"/>
<polygon fill="none" stroke="midnightblue" points="448.812,-106.84 440.52,-113.435 451.114,-113.451 448.812,-106.84"/>
</g>
<!-- Node8 -->
<g id="node8" class="node"><title>Node8</title>
<g id="a_node8"><a xlink:href="../../dd/d30/classStartCommand.html" target="_top" xlink:title="StartCommand. ">
<polygon fill="white" stroke="black" points="712.5,-0.5 712.5,-57.5 795.5,-57.5 795.5,-0.5 712.5,-0.5"/>
<text text-anchor="middle" x="754" y="-45.5" font-family="Helvetica,sans-Serif" font-size="10.00">StartCommand</text>
<polyline fill="none" stroke="black" points="712.5,-38.5 795.5,-38.5 "/>
<text text-anchor="middle" x="754" y="-26.5" font-family="Helvetica,sans-Serif" font-size="10.00"> </text>
<polyline fill="none" stroke="black" points="712.5,-19.5 795.5,-19.5 "/>
<text text-anchor="start" x="720.5" y="-7.5" font-family="Helvetica,sans-Serif" font-size="10.00">+ execute()</text>
</a>
</g>
</g>
<!-- Node1&#45;&gt;Node8 -->
<g id="edge7" class="edge"><title>Node1&#45;&gt;Node8</title>
<path fill="none" stroke="midnightblue" d="M451.122,-120.099C512.714,-110.333 617.613,-90.4741 703,-58 706.116,-56.8151 709.275,-55.4704 712.416,-54.0268"/>
<polygon fill="none" stroke="midnightblue" points="450.222,-116.697 440.879,-121.693 451.298,-123.614 450.222,-116.697"/>
</g>
</g>
</svg>
