<?xml version="1.0" encoding="UTF-8" standalone="no"?>
<!DOCTYPE svg PUBLIC "-//W3C//DTD SVG 1.1//EN"
 "http://www.w3.org/Graphics/SVG/1.1/DTD/svg11.dtd">
<!-- Generated by graphviz version 2.38.0 (20140413.2041)
 -->
<!-- Title: Graphical Class Hierarchy Pages: 1 -->
<svg width="217pt" height="256pt"
 viewBox="0.00 0.00 217.00 256.00" xmlns="http://www.w3.org/2000/svg" xmlns:xlink="http://www.w3.org/1999/xlink">
<g id="graph0" class="graph" transform="scale(1 1) rotate(0) translate(4 252)">
<title>Graphical Class Hierarchy</title>
<polygon fill="white" stroke="none" points="-4,4 -4,-252 213,-252 213,4 -4,4"/>
<!-- Node1 -->
<g id="node1" class="node"><title>Node1</title>
<g id="a_node1"><a xlink:href="d9/d71/classCommand.html" target="_top" xlink:title="Command Interface. ">
<polygon fill="white" stroke="black" points="0,-114.5 0,-133.5 62,-133.5 62,-114.5 0,-114.5"/>
<text text-anchor="middle" x="31" y="-121.5" font-family="Helvetica,sans-Serif" font-size="10.00">Command</text>
</a>
</g>
</g>
<!-- Node2 -->
<g id="node2" class="node"><title>Node2</title>
<g id="a_node2"><a xlink:href="df/d0b/classAttackCommand.html" target="_top" xlink:title="AttackCommand. ">
<polygon fill="white" stroke="black" points="108.5,-228.5 108.5,-247.5 198.5,-247.5 198.5,-228.5 108.5,-228.5"/>
<text text-anchor="middle" x="153.5" y="-235.5" font-family="Helvetica,sans-Serif" font-size="10.00">AttackCommand</text>
</a>
</g>
</g>
<!-- Node1&#45;&gt;Node2 -->
<g id="edge1" class="edge"><title>Node1&#45;&gt;Node2</title>
<path fill="none" stroke="midnightblue" d="M40.5901,-142.886C51.2046,-164.231 71.1989,-198.646 98,-219 103.027,-222.818 108.881,-225.908 114.85,-228.396"/>
<polygon fill="midnightblue" stroke="midnightblue" points="43.6119,-141.092 36.144,-133.577 37.2953,-144.109 43.6119,-141.092"/>
</g>
<!-- Node3 -->
<g id="node3" class="node"><title>Node3</title>
<g id="a_node3"><a xlink:href="df/d85/classDefendCommand.html" target="_top" xlink:title="DefendCommand. ">
<polygon fill="white" stroke="black" points="107,-190.5 107,-209.5 200,-209.5 200,-190.5 107,-190.5"/>
<text text-anchor="middle" x="153.5" y="-197.5" font-family="Helvetica,sans-Serif" font-size="10.00">DefendCommand</text>
</a>
</g>
</g>
<!-- Node1&#45;&gt;Node3 -->
<g id="edge2" class="edge"><title>Node1&#45;&gt;Node3</title>
<path fill="none" stroke="midnightblue" d="M47.9803,-140.897C60.5753,-153.4 79.1102,-170.086 98,-181 104.42,-184.709 111.683,-187.862 118.764,-190.47"/>
<polygon fill="midnightblue" stroke="midnightblue" points="50.459,-138.426 40.9557,-133.742 45.4638,-143.33 50.459,-138.426"/>
</g>
<!-- Node4 -->
<g id="node4" class="node"><title>Node4</title>
<g id="a_node4"><a xlink:href="dc/dcb/classMoveDownCommand.html" target="_top" xlink:title="MoveDownCommand. ">
<polygon fill="white" stroke="black" points="98,-152.5 98,-171.5 209,-171.5 209,-152.5 98,-152.5"/>
<text text-anchor="middle" x="153.5" y="-159.5" font-family="Helvetica,sans-Serif" font-size="10.00">MoveDownCommand</text>
</a>
</g>
</g>
<!-- Node1&#45;&gt;Node4 -->
<g id="edge3" class="edge"><title>Node1&#45;&gt;Node4</title>
<path fill="none" stroke="midnightblue" d="M71.9825,-136.609C88.415,-141.791 107.124,-147.691 122.37,-152.498"/>
<polygon fill="midnightblue" stroke="midnightblue" points="72.6861,-133.161 62.0964,-133.491 70.5808,-139.837 72.6861,-133.161"/>
</g>
<!-- Node5 -->
<g id="node5" class="node"><title>Node5</title>
<g id="a_node5"><a xlink:href="db/d8c/classMoveLeftCommand.html" target="_top" xlink:title="MoveLeftCommand. ">
<polygon fill="white" stroke="black" points="102.5,-114.5 102.5,-133.5 204.5,-133.5 204.5,-114.5 102.5,-114.5"/>
<text text-anchor="middle" x="153.5" y="-121.5" font-family="Helvetica,sans-Serif" font-size="10.00">MoveLeftCommand</text>
</a>
</g>
</g>
<!-- Node1&#45;&gt;Node5 -->
<g id="edge4" class="edge"><title>Node1&#45;&gt;Node5</title>
<path fill="none" stroke="midnightblue" d="M72.1728,-124C81.7875,-124 92.1723,-124 102.181,-124"/>
<polygon fill="midnightblue" stroke="midnightblue" points="72.0964,-120.5 62.0964,-124 72.0964,-127.5 72.0964,-120.5"/>
</g>
<!-- Node6 -->
<g id="node6" class="node"><title>Node6</title>
<g id="a_node6"><a xlink:href="df/d92/classMoveRightCommand.html" target="_top" xlink:title="MoveRightCommand. ">
<polygon fill="white" stroke="black" points="99,-76.5 99,-95.5 208,-95.5 208,-76.5 99,-76.5"/>
<text text-anchor="middle" x="153.5" y="-83.5" font-family="Helvetica,sans-Serif" font-size="10.00">MoveRightCommand</text>
</a>
</g>
</g>
<!-- Node1&#45;&gt;Node6 -->
<g id="edge5" class="edge"><title>Node1&#45;&gt;Node6</title>
<path fill="none" stroke="midnightblue" d="M71.9825,-111.391C88.415,-106.209 107.124,-100.309 122.37,-95.5017"/>
<polygon fill="midnightblue" stroke="midnightblue" points="70.5808,-108.163 62.0964,-114.509 72.6861,-114.839 70.5808,-108.163"/>
</g>
<!-- Node7 -->
<g id="node7" class="node"><title>Node7</title>
<g id="a_node7"><a xlink:href="db/d91/classMoveUpCommand.html" target="_top" xlink:title="MoveUpCommand. ">
<polygon fill="white" stroke="black" points="104.5,-38.5 104.5,-57.5 202.5,-57.5 202.5,-38.5 104.5,-38.5"/>
<text text-anchor="middle" x="153.5" y="-45.5" font-family="Helvetica,sans-Serif" font-size="10.00">MoveUpCommand</text>
</a>
</g>
</g>
<!-- Node1&#45;&gt;Node7 -->
<g id="edge6" class="edge"><title>Node1&#45;&gt;Node7</title>
<path fill="none" stroke="midnightblue" d="M47.9803,-107.103C60.5753,-94.6001 79.1102,-77.9137 98,-67 104.42,-63.2905 111.683,-60.138 118.764,-57.5304"/>
<polygon fill="midnightblue" stroke="midnightblue" points="45.4638,-104.67 40.9557,-114.258 50.459,-109.574 45.4638,-104.67"/>
</g>
<!-- Node8 -->
<g id="node8" class="node"><title>Node8</title>
<g id="a_node8"><a xlink:href="dd/d30/classStartCommand.html" target="_top" xlink:title="StartCommand. ">
<polygon fill="white" stroke="black" points="112,-0.5 112,-19.5 195,-19.5 195,-0.5 112,-0.5"/>
<text text-anchor="middle" x="153.5" y="-7.5" font-family="Helvetica,sans-Serif" font-size="10.00">StartCommand</text>
</a>
</g>
</g>
<!-- Node1&#45;&gt;Node8 -->
<g id="edge7" class="edge"><title>Node1&#45;&gt;Node8</title>
<path fill="none" stroke="midnightblue" d="M40.5901,-105.114C51.2046,-83.7686 71.1989,-49.3545 98,-29 103.027,-25.1819 108.881,-22.0924 114.85,-19.6041"/>
<polygon fill="midnightblue" stroke="midnightblue" points="37.2953,-103.891 36.144,-114.423 43.6119,-106.908 37.2953,-103.891"/>
</g>
</g>
</svg>
